# xmcd CD database file
#
# Track frame offsets:
#	150
#	14663
#	27198
#	41100
#	53575
#	83213
#	88735
#	103373
#	116688
#	132950
#	145788
#	159735
#
# Disc length: 2291 seconds
#
# Revision: 0
# Processed by: cddbd v1.4PL0 Copyright (c) Steve Scherf et al.
# Submitted via: CDex 1.51
#
DISCID=a408f10c
DTITLE=Various Artist - Silver Screen Cowboys
DYEAR=1994
DGENRE=Country
TTITLE0=Ken Maynard - Home On The Range
TTITLE1=Gene Autry - Back In The Saddle Again
TTITLE2=Smiley Burnette - Mama Don't Like Music
TTITLE3=Tex Ritter - A-Riding Old Paint
TTITLE4=William Boyd (Hopalong Cassidy) and Randy Brooks (Lucky) - Hopalong Cassidy and the Haunted Gold Mine
TTITLE5=John Wayne - Texas Is A Woman
TTITLE6=Sons of the Pioneers - Tumbling Tumbleweeds
TTITLE7=Jimmy Wakely - Moon Over Montana
TTITLE8=George (Gabby) Hayes - Gabby's Uncle Snowball Hayes
TTITLE9=Eddie Dean With The Frontiersmen - I Dreamed Of A Hill-Billy Heaven
TTITLE10=Rex Allen - Don't Go Near The Indians
TTITLE11=Roy Rogers - Hoppy, Gene and Me
EXTD=YEAR: 1994
EXTT0=
EXTT1=
EXTT2=
EXTT3=
EXTT4=
EXTT5=
EXTT6=
EXTT7=
EXTT8=
EXTT9=
EXTT10=
EXTT11=
PLAYORDER=
